<svg width="232" height="67" viewBox="0 0 232 67" fill="none" xmlns="http://www.w3.org/2000/svg">
<g id="Ebene_1" clip-path="url(#clip0_8_108)">
<path id="Vector" d="M166.97 50.4698C187.42 50.0098 204.99 46.3298 222.42 41.7098C224.83 41.0698 227.24 40.4098 229.66 39.8098C230.26 39.6598 230.91 39.7198 231.54 39.6798C230.98 40.1298 230.48 40.8198 229.85 40.9998C220.24 43.6698 210.69 46.6898 200.95 48.7998C187.25 51.7598 173.32 53.3698 159.25 52.3198C152.4 51.8098 145.69 50.6398 139.98 46.2898C132.46 40.5698 129.57 32.5698 132.15 24.3098C135.46 13.7298 141.74 8.49978 151.74 7.93978C152.96 7.86978 154.17 7.62978 155.39 7.45978C154.33 6.75978 153.34 5.88978 152.18 5.38978C144.64 2.10978 136.78 1.26978 128.7 2.74978C111.91 5.82978 96.46 12.0698 82.59 22.1298C75.17 27.4998 67.74 32.8798 60.08 37.8798C47.61 46.0298 34.57 53.0798 19.43 54.7998C13.43 55.4798 7.46 54.8198 1.75 52.6398C1.15 52.4098 0.58 52.0798 0 51.7998C0.73 51.7098 1.5 51.3998 2.17 51.5698C14.83 54.6998 26.83 52.8598 38.66 47.5898C48.77 43.0798 57.98 37.1898 67.09 31.0198C77.43 24.0298 87.68 16.8498 98.5 10.6898C108.38 5.05978 119.48 2.17978 130.73 0.469778C138.79 -0.750222 146.7 0.389778 154.08 4.07978C156.01 5.03978 157.85 6.21978 159.58 7.49978C160.25 7.99978 160.5 9.06978 160.94 9.87978C160.16 9.99978 159.37 10.2198 158.59 10.2098C156.1 10.1598 153.59 9.75978 151.14 9.97978C142.36 10.7598 135.36 17.6398 133.47 27.0898C131.93 34.7998 135.77 42.0898 143.93 46.1498C146.87 47.6098 150.13 48.6998 153.37 49.1998C158.62 50.0098 163.97 50.2098 166.97 50.4598V50.4698Z" fill="white" fill-opacity="0.2"/>
<path id="Vector_2" d="M143.03 66.14C132.74 65.82 122.7 64.62 112.84 61.84C108.13 60.51 104.32 58.09 101.95 53.73C98.33 47.07 100.95 40.14 108.01 37.42C108.81 37.11 109.55 36.66 110.31 36.28C109.42 35.93 108.56 35.4 107.64 35.26C100.31 34.13 93.4 36.07 86.73 38.71C82.42 40.42 78.34 42.76 74.26 45C63.44 50.94 52.34 56.25 40.56 60.01C39.03 60.5 37.36 60.57 35.75 60.83C37.22 60.1 38.63 59.19 40.17 58.65C51.99 54.5 63.22 49.11 74.04 42.81C82.89 37.65 92.09 33.51 102.52 32.83C107.16 32.53 111.45 33.55 115.36 36.03C116.04 36.46 116.32 37.54 116.78 38.32C116.06 38.6 115.37 39 114.63 39.12C113.82 39.25 112.97 39.1 112.14 39.12C108.12 39.21 104.9 40.9 103.33 44.6C101.76 48.28 102.6 51.98 105.43 54.75C107.27 56.55 109.58 58.18 111.98 59.05C125.53 63.97 139.63 64.64 153.86 63.83C159.17 63.53 164.45 62.83 169.75 62.34C170.22 62.3 170.71 62.48 171.19 62.56C170.74 62.79 170.3 63.19 169.82 63.24C160.9 64.23 151.98 65.18 143.06 66.14H143.03Z" fill="white" fill-opacity="0.2"/>
</g>
<defs>
<clipPath id="clip0_8_108">
<rect width="231.54" height="66.14" fill="white"/>
</clipPath>
</defs>
</svg>
