<svg width="44" height="45" viewBox="0 0 44 45" fill="none" xmlns="http://www.w3.org/2000/svg">
<g id="mdi:guest-room-outline">
<path id="Vector" d="M12.8333 26.1667C15.8767 26.1667 18.3333 23.7101 18.3333 20.6667C18.3333 17.6234 15.8767 15.1667 12.8333 15.1667C9.79 15.1667 7.33334 17.6234 7.33334 20.6667C7.33334 23.7101 9.79 26.1667 12.8333 26.1667ZM12.8333 18.8334C13.8417 18.8334 14.6667 19.6584 14.6667 20.6667C14.6667 21.6751 13.8417 22.5001 12.8333 22.5001C11.825 22.5001 11 21.6751 11 20.6667C11 19.6584 11.825 18.8334 12.8333 18.8334ZM34.8333 13.3334H20.1667V28.0001H5.5V9.66675H1.83334V37.1667H5.5V31.6667H38.5V37.1667H42.1667V20.6667C42.1667 16.6151 38.885 13.3334 34.8333 13.3334ZM38.5 28.0001H23.8333V17.0001H34.8333C36.85 17.0001 38.5 18.6501 38.5 20.6667V28.0001Z" fill="#1C3144"/>
</g>
</svg>
